<svg id="Layer_1" data-name="Layer 1" xmlns="http://www.w3.org/2000/svg" viewBox="0 0 32 32"><defs><style>.cls-1{fill:none;stroke:#000;stroke-miterlimit:10;}</style></defs><title>blockchain</title><rect class="cls-1" x="11" y="13" width="6" height="6"/><rect class="cls-1" x="17" y="13" width="4" height="6"/><path class="cls-1" d="M22.5,17.5v-3h2.87A9.51,9.51,0,0,0,18.5,6.84V8h-5V6.84A9.51,9.51,0,0,0,6.63,14.5H9.5v3H6.63a9.51,9.51,0,0,0,6.87,7.66V24h5v1.16a9.51,9.51,0,0,0,6.87-7.66Z"/><path class="cls-1" d="M16.5,8h-3V5h3Zm2-3h-2V8h2Zm-2,19h-3v3h3Zm2,0h-2v3h2Zm-11-9.5h-3v3h3Zm2,0h-2v3h2Zm16,0h-3v3h3Zm2,0h-2v3h2Z"/><line class="cls-1" x1="9.5" y1="16" x2="11" y2="16"/><line class="cls-1" x1="21" y1="16" x2="22.5" y2="16"/><line class="cls-1" x1="16" y1="19" x2="16" y2="24"/><line class="cls-1" x1="16" y1="13" x2="16" y2="8"/></svg>