<svg id="Layer_1" data-name="Layer 1" xmlns="http://www.w3.org/2000/svg" viewBox="0 0 32 32"><defs><style>.cls-1{fill:none;stroke:#000;stroke-miterlimit:10;}</style></defs><title>altcoins</title><path class="cls-1" d="M20.43,13.5a8.26,8.26,0,0,0,.07-1,8,8,0,1,0-8,8,8.26,8.26,0,0,0,1-.07A7,7,0,0,1,20.43,13.5Z"/><circle class="cls-1" cx="20.5" cy="20.5" r="7"/><polyline class="cls-1" points="5.08 15.5 8.5 15.5 8.5 10 8.5 9.5 12.5 14.5 16.5 9.5 16.5 10 16.5 14.76"/><path class="cls-1" d="M21.81,20.5l.88,1.08L20.5,25.36l-2.19-3.78.88-1.08,1.31,1.62ZM20.5,15.64l-2.19,3.78,2.19,2.7,2.19-2.7Z"/></svg>