<svg id="Layer_1" data-name="Layer 1" xmlns="http://www.w3.org/2000/svg" viewBox="0 0 32 32"><defs><style>.cls-1{fill:none;stroke:#000;stroke-miterlimit:10;}</style></defs><title>decentralized</title><circle class="cls-1" cx="16" cy="16" r="5"/><path class="cls-1" d="M26.46,15.16A10.43,10.43,0,0,0,24,9.2,1,1,0,0,1,22.8,8a10.43,10.43,0,0,0-6-2.47,1,1,0,0,1-1.68,0A10.43,10.43,0,0,0,9.2,8,1,1,0,0,1,8,9.2a10.43,10.43,0,0,0-2.47,6,1,1,0,0,1,0,1.68A10.43,10.43,0,0,0,8,22.8,1,1,0,0,1,9.2,24a10.43,10.43,0,0,0,6,2.47,1,1,0,0,1,1.68,0,10.43,10.43,0,0,0,6-2.47A1,1,0,0,1,24,22.8a10.43,10.43,0,0,0,2.47-6,1,1,0,0,1,0-1.68Z"/><path class="cls-1" d="M17,5a1,1,0,1,1-1-1A1,1,0,0,1,17,5ZM16,26a1,1,0,1,0,1,1A1,1,0,0,0,16,26ZM28,16a1,1,0,1,0-1,1A1,1,0,0,0,28,16ZM6,16a1,1,0,1,0-1,1A1,1,0,0,0,6,16ZM24.46,7.54a1,1,0,1,0,0,1.41A1,1,0,0,0,24.46,7.54ZM9,23.05a1,1,0,1,0,0,1.41A1,1,0,0,0,9,23.05Zm15.51,1.41a1,1,0,1,0-1.41,0A1,1,0,0,0,24.46,24.46ZM9,9A1,1,0,1,0,7.54,9,1,1,0,0,0,9,9Z"/><path class="cls-1" d="M19.54,12.46,23.05,9M9,23.05l3.51-3.51m7.08,0,3.51,3.51M9,9l3.51,3.51M21,16h5M6,16h5m5,5v5M16,6v5"/></svg>