<svg id="Layer_1" data-name="Layer 1" xmlns="http://www.w3.org/2000/svg" viewBox="0 0 32 32"><defs><style>.cls-1{fill:none;stroke:#000;stroke-miterlimit:10;}</style></defs><title>decentralized_1</title><circle class="cls-1" cx="12" cy="12.5" r="2"/><circle class="cls-1" cx="9" cy="7.5" r="1"/><circle class="cls-1" cx="9" cy="17.5" r="1"/><circle class="cls-1" cx="6" cy="12.5" r="1"/><circle class="cls-1" cx="23" cy="7.5" r="1"/><circle class="cls-1" cx="23" cy="17.5" r="1"/><circle class="cls-1" cx="26" cy="12.5" r="1"/><circle class="cls-1" cx="20" cy="12.5" r="2"/><line class="cls-1" x1="15.01" y1="17.77" x2="12.99" y2="14.23"/><line class="cls-1" x1="19.01" y1="14.23" x2="16.99" y2="17.77"/><line class="cls-1" x1="14" y1="12.5" x2="18" y2="12.5"/><circle class="cls-1" cx="21" cy="22.5" r="1"/><circle class="cls-1" cx="11" cy="22.5" r="1"/><circle class="cls-1" cx="16" cy="25.5" r="1"/><circle class="cls-1" cx="16" cy="19.5" r="2"/><line class="cls-1" x1="10" y1="12.5" x2="7" y2="12.5"/><line class="cls-1" x1="22" y1="12.5" x2="25" y2="12.5"/><line class="cls-1" x1="20.44" y1="10.56" x2="22.56" y2="8.44"/><line class="cls-1" x1="22.56" y1="16.56" x2="20.44" y2="14.44"/><line class="cls-1" x1="11.56" y1="10.56" x2="9.44" y2="8.44"/><line class="cls-1" x1="9.44" y1="16.56" x2="11.56" y2="14.44"/><line class="cls-1" x1="16" y1="21.5" x2="16" y2="24.5"/><line class="cls-1" x1="17.94" y1="19.94" x2="20.06" y2="22.06"/><line class="cls-1" x1="14.06" y1="19.94" x2="11.94" y2="22.06"/></svg>