<svg id="Layer_1" data-name="Layer 1" xmlns="http://www.w3.org/2000/svg" viewBox="0 0 32 32"><defs><style>.cls-1{fill:none;stroke:#000;stroke-miterlimit:10;}</style></defs><title>ethereum blockchain</title><circle class="cls-1" cx="16" cy="6" r="1"/><circle class="cls-1" cx="16" cy="26" r="1"/><circle class="cls-1" cx="6" cy="16" r="1"/><circle class="cls-1" cx="26" cy="16" r="1"/><circle class="cls-1" cx="8.93" cy="8.93" r="1"/><circle class="cls-1" cx="23.07" cy="23.07" r="1"/><circle class="cls-1" cx="8.93" cy="23.07" r="1"/><circle class="cls-1" cx="23.07" cy="8.93" r="1"/><line class="cls-1" x1="19.36" y1="19.36" x2="22.36" y2="22.36"/><line class="cls-1" x1="9.64" y1="9.64" x2="12.64" y2="12.64"/><line class="cls-1" x1="12.64" y1="19.36" x2="9.64" y2="22.36"/><line class="cls-1" x1="22.36" y1="9.64" x2="19.36" y2="12.64"/><line class="cls-1" x1="16" y1="20.75" x2="16" y2="25"/><line class="cls-1" x1="16" y1="7" x2="16" y2="11.25"/><line class="cls-1" x1="20.75" y1="16" x2="25" y2="16"/><line class="cls-1" x1="7" y1="16" x2="11.25" y2="16"/><circle class="cls-1" cx="16" cy="16" r="4.75"/><polygon class="cls-1" points="16 17.62 14.69 16 13.81 17.08 16 20.86 18.18 17.08 17.31 16 16 17.62"/><polygon class="cls-1" points="16 11.14 13.81 14.92 16 17.62 18.18 14.92 16 11.14"/></svg>