<svg id="Layer_1" data-name="Layer 1" xmlns="http://www.w3.org/2000/svg" viewBox="0 0 32 32"><defs><style>.cls-1{fill:none;stroke:#000;stroke-miterlimit:10;}</style></defs><title>ordered records</title><polyline class="cls-1" points="5.5 17.76 5.5 10.5 10.5 10.5 10.5 20.5 8.29 20.5"/><rect class="cls-1" x="13.5" y="10.5" width="5" height="10"/><polyline class="cls-1" points="26.5 12.74 26.5 20.5 21.5 20.5 21.5 10.5 23.4 10.5"/><path class="cls-1" d="M8.31,20.75a3,3,0,1,1-3-3A3,3,0,0,1,8.31,20.75Z"/><polyline class="cls-1" points="3.94 20.82 4.79 21.75 6.67 19.76"/><path class="cls-1" d="M29.31,9.75a3,3,0,1,1-3-3A3,3,0,0,1,29.31,9.75Z"/><polyline class="cls-1" points="24.94 9.81 25.79 10.75 27.67 8.76"/><line class="cls-1" x1="7" y1="12.5" x2="9" y2="12.5"/><line class="cls-1" x1="7" y1="14.5" x2="9" y2="14.5"/><line class="cls-1" x1="7" y1="16.5" x2="9" y2="16.5"/><line class="cls-1" x1="7.28" y1="18.5" x2="9" y2="18.5"/><line class="cls-1" x1="15" y1="12.5" x2="17" y2="12.5"/><line class="cls-1" x1="15" y1="14.5" x2="17" y2="14.5"/><line class="cls-1" x1="15" y1="16.5" x2="17" y2="16.5"/><line class="cls-1" x1="15" y1="18.5" x2="17" y2="18.5"/><line class="cls-1" x1="23" y1="12.5" x2="25" y2="12.5"/><line class="cls-1" x1="23" y1="14.5" x2="25" y2="14.5"/><line class="cls-1" x1="23" y1="16.5" x2="25" y2="16.5"/><line class="cls-1" x1="23" y1="18.5" x2="25" y2="18.5"/><path class="cls-1" d="M23.46,20.5a2.74,2.74,0,0,1,0,.5,3.5,3.5,0,0,1-7,0,2.74,2.74,0,0,1,0-.5"/><path class="cls-1" d="M15.46,10.5a2.74,2.74,0,0,0,0-.5,3.5,3.5,0,0,0-7,0,2.74,2.74,0,0,0,0,.5"/><polyline class="cls-1" points="11.29 5.08 12.71 6.5 11.29 7.91"/><polyline class="cls-1" points="19.29 23.09 20.71 24.5 19.29 25.91"/></svg>